<svg xmlns="http://www.w3.org/2000/svg" viewBox="0 0 24 24" fill="currentColor">
  <path d="M11.99 2C6.472 2 2 6.473 2 11.99c0 5.518 4.472 9.991 9.99 9.991 5.518 0 9.99-4.473 9.99-9.99 0-5.518-4.472-9.99-9.99-9.99zm2.995 13.934l-1.535 1.54-1.535-1.53-3.045-3.04 1.535-1.54 3.045 3.04 3.045-3.04 1.535 1.54-3.045 3.03z" />
  <path d="M12 4.929c-3.898 0-7.071 3.173-7.071 7.071 0 3.898 3.173 7.071 7.071 7.071 3.898 0 7.071-3.173 7.071-7.071 0-3.898-3.173-7.071-7.071-7.071zm2.985 11.051l-2.985-2.98-2.985 2.98-2.985-2.98 2.985-2.98-2.985-2.98 2.985-2.98 2.985 2.98 2.985-2.98 2.985 2.98-2.985 2.98 2.985 2.98-2.985 2.98z" />
</svg>
